<svg xmlns="http://www.w3.org/2000/svg" version="1.1" xmlns:xlink="http://www.w3.org/1999/xlink" xmlns:svgjs="http://svgjs.dev/svgjs" width="2000" height="2000" viewBox="0 0 2000 2000"><g transform="matrix(1,0,0,1,0,0.0017585320739499366)"><svg viewBox="0 0 280 280" data-background-color="#ffffff" preserveAspectRatio="xMidYMid meet" height="2000" width="2000" xmlns="http://www.w3.org/2000/svg" xmlns:xlink="http://www.w3.org/1999/xlink"><g id="tight-bounds" transform="matrix(1,0,0,1,0,0.0002461944903870972)"><svg viewBox="0 0 280 280" height="280" width="280"><g><svg viewBox="0 0 280 280" height="280" width="280"><g><svg viewBox="0 0 280 280" height="280" width="280"><g id="textblocktransform"><svg viewBox="0 0 280 280" height="280" width="280" id="textblock"><g><svg viewBox="0 0 280 280" height="280" width="280"><g transform="matrix(1,0,0,1,74.00336708925556,74.00336708925556)"><svg viewBox="0 0 131.99326582148888 131.99326582148888" height="131.99326582148888" width="131.99326582148888"><g id="icon-0"><circle r="66" cx="65.99663291074444" cy="65.99663291074444" fill="#000000" data-fill-palette-color="accent"></circle></g></svg></g><g id="text-0"><path d="M14.589 88.135c0.47-1.436 1.357-2.401 2.661-2.896 1.302-0.489 2.823-0.449 4.564 0.12v0l14.803 4.845-1.519 4.642-14.282-4.673c-0.957-0.313-1.687-0.404-2.191-0.274-0.496 0.127-0.826 0.442-0.99 0.946v0c-0.346 1.056 0.306 2.429 1.955 4.117v0l13.973 4.573-1.519 4.642-27.956-9.148 1.034-4.801 10.841 3.548c-0.774-0.955-1.28-1.881-1.516-2.777-0.234-0.902-0.187-1.857 0.142-2.864z" fill="#4b7b65" data-fill-palette-color="primary"></path><path d="M143.275 0c2.066-0.025 3.64 0.902 4.721 2.779 1.082 1.884 1.644 4.601 1.686 8.151v0c0.041 3.446-0.528 6.176-1.707 8.191-1.186 2.015-2.851 3.035-4.996 3.061v0c-1.693 0.02-3.121-0.718-4.283-2.215v0l0.115 9.739-4.877 0.608-0.353-29.649 4.335-0.052 0.227 2.548c0.674-1.067 1.433-1.858 2.277-2.371 0.844-0.514 1.796-0.777 2.855-0.79zM141.621 18.461c1.007-0.012 1.768-0.596 2.284-1.753 0.516-1.164 0.758-3.056 0.727-5.679v0c-0.033-2.753-0.281-4.669-0.745-5.749-0.458-1.08-1.164-1.614-2.118-1.603v0c-1.223 0.015-2.301 0.9-3.235 2.658v0l0.121 10.17c0.866 1.317 1.854 1.969 2.966 1.956z" fill="#4b7b65" data-fill-palette-color="primary"></path><path d="M260.694 101.768c-0.222 0.079-0.871 0.264-1.946 0.557v0l-3.632-10.223c-2.011 0.825-3.313 1.691-3.907 2.596-0.597 0.899-0.696 1.909-0.298 3.031v0c0.276 0.776 0.657 1.429 1.143 1.956 0.482 0.537 1.138 1.063 1.967 1.581v0l-1.936 2.843c-2.322-1.146-3.918-2.942-4.787-5.388v0c-0.922-2.594-0.729-4.904 0.578-6.93 1.307-2.026 3.596-3.619 6.867-4.781v0c3.266-1.16 6.083-1.415 8.452-0.765 2.366 0.644 3.979 2.177 4.839 4.599v0c0.825 2.323 0.628 4.433-0.592 6.331-1.226 1.9-3.476 3.431-6.748 4.593zM260.186 96.88l0.259-0.092c1.873-0.665 3.161-1.376 3.864-2.133 0.703-0.756 0.877-1.633 0.522-2.631v0c-0.328-0.924-0.998-1.481-2.009-1.67-1.011-0.189-2.581 0.039-4.711 0.685v0z" fill="#4b7b65" data-fill-palette-color="primary"></path><path d="M36.956 176.008c0.521 1.563 0.371 2.985-0.451 4.264-0.829 1.276-2.187 2.228-4.073 2.856v0l-16.108 5.366-1.683-5.053 15.531-5.173c1.042-0.347 1.742-0.739 2.1-1.176 0.352-0.434 0.435-0.927 0.252-1.479v0c-0.382-1.148-1.84-1.923-4.373-2.327v0l-15.206 5.065-1.683-5.053 30.401-10.127 2.223 4.873-11.79 3.927c1.294 0.327 2.336 0.807 3.126 1.44 0.792 0.639 1.37 1.505 1.734 2.597z" fill="#4b7b65" data-fill-palette-color="primary"></path><path d="M143.786 247.223c2.249 0.029 3.939 1.084 5.07 3.165 1.131 2.081 1.671 5.057 1.62 8.928v0c-0.049 3.753-0.744 6.71-2.086 8.87-1.342 2.16-3.184 3.225-5.525 3.195v0c-1.844-0.024-3.376-0.864-4.597-2.522v0l-0.138 10.602-5.333 0.539 0.418-32.306 4.718 0.061 0.18 2.778c0.767-1.148 1.615-1.99 2.544-2.527 0.929-0.537 1.972-0.798 3.129-0.783zM141.486 267.292c1.098 0.014 1.947-0.603 2.545-1.851 0.592-1.248 0.906-3.3 0.943-6.157v0c0.039-3.001-0.179-5.097-0.655-6.287-0.475-1.19-1.232-1.791-2.272-1.805v0c-1.327-0.017-2.523 0.919-3.587 2.809v0l-0.143 11.082c0.903 1.457 1.96 2.193 3.169 2.209z" fill="#4b7b65" data-fill-palette-color="primary"></path><path d="M259.711 168.385c0.246 0.089 0.923 0.381 2.03 0.874v0l-4.041 11.107c2.262 0.705 3.957 0.886 5.083 0.544 1.122-0.35 1.905-1.133 2.348-2.35v0c0.306-0.842 0.442-1.655 0.407-2.44-0.043-0.781-0.232-1.678-0.566-2.69v0l3.603-1.038c1.153 2.569 1.245 5.185 0.277 7.846v0c-1.026 2.82-2.79 4.628-5.292 5.422-2.502 0.795-5.529 0.546-9.08-0.746v0c-3.552-1.292-6.098-3.033-7.64-5.222-1.542-2.189-1.834-4.599-0.877-7.229v0c0.919-2.526 2.554-4.161 4.905-4.905 2.343-0.741 5.291-0.465 8.843 0.827zM256.754 172.84l-0.286-0.104c-2.034-0.74-3.606-1.037-4.717-0.891-1.119 0.15-1.875 0.765-2.269 1.846v0c-0.367 1.008-0.191 1.941 0.526 2.801 0.717 0.859 2.197 1.756 4.438 2.69v0z" fill="#4b7b65" data-fill-palette-color="primary"></path><path d="M5.874 135.197c0-6.313 5.118-11.431 11.431-11.431 6.313 0 11.431 5.118 11.432 11.431 0 6.313-5.118 11.431-11.432 11.432-6.313 0-11.431-5.118-11.431-11.432z" fill="#4b7b65" data-fill-palette-color="primary"></path><path d="M253.049 135.197c0-6.313 5.118-11.431 11.432-11.431 6.313 0 11.431 5.118 11.431 11.431 0 6.313-5.118 11.431-11.431 11.432-6.313 0-11.431-5.118-11.432-11.432z" fill="#4b7b65" data-fill-palette-color="primary"></path></g><g id="text-1"></g></svg></g></svg></g></svg></g><g></g></svg></g><defs></defs></svg><rect width="280" height="280" fill="none" stroke="none" visibility="hidden"></rect></g></svg></g></svg>